# xmcd
#
# Track frame offsets:
#	150
#	14347
#	29585
#	45957
#	56570
#	68655
#	87255
#	98867
#	112277
#	126557
#	137727
#	149080
#	168007
#
# Disc length: 2460 seconds
#
# Revision: 1
# Processed by: cddbd v1.5.2PL0 Copyright (c) Steve Scherf et al.
# Submitted via: audiograbber 1.83.01
#
DISCID=bb099a0d
DTITLE=Jimmy James Zubrit - Don't rain on my party
DYEAR=1998
DGENRE=Country
TTITLE0=That old mail box
TTITLE1=Baby wrote me
TTITLE2=Don't get held naymore
TTITLE3=Three time loser
TTITLE4=Heartbreak living
TTITLE5=Wait for the sun
TTITLE6=Out of gas
TTITLE7=The old ice box
TTITLE8=Tragic situation
TTITLE9=Little white store
TTITLE10=Nebraska woman
TTITLE11=Messing with my heart
TTITLE12=Don't rain on my party
EXTD=
EXTT0=
EXTT1=
EXTT2=
EXTT3=
EXTT4=
EXTT5=
EXTT6=
EXTT7=
EXTT8=
EXTT9=
EXTT10=
EXTT11=
EXTT12=
PLAYORDER=
